# xmcd
#
# Track frame offsets: 
#        150
#        16150
#        30629
#        48195
#        60364
#        74897
#        89068
#        101275
#        117748
#        135231
#        152328
#        167480
#        179982
#        192035
#        211098
#        227812
#        245793
#        255268
#        268033
#        283591
#
# Disc length: 3976 seconds
#
# Revision: 0
# Processed by: cddbd v1.5.2PL0 Copyright (c) Steve Scherf et al.
# Submitted via: ExactAudioCopy v1.1
#
DISCID=160f8614
DTITLE=Various Artist - Classic Country CD1
DYEAR=2016
DGENRE=Country
TTITLE0=Shania Twain - You're Still The One
TTITLE1=Glen Campbell - Rhinestone Cowboy
TTITLE2=Lady Antebellum - Need You Now
TTITLE3=Patsy Cline - Crazy
TTITLE4=Little Big Town - Girl Crush
TTITLE5=The Soggy Bottom Boys - I Am A Man Of Constant Sorrow
TTITLE6=Hank Williams - Lovesick Blues
TTITLE7=Chris Stapleton - Traveller
TTITLE8=Linda Ronstadt - Blue Bayou
TTITLE9=Kenny Rogers - We've Got Tonight (with Sheena Easton)
TTITLE10=Olivia Newton-John - Please Mr Please
TTITLE11=Merle Haggard - Tonight The Bottle Let Me Down
TTITLE12=The Byrds - Changing Heart
TTITLE13=The Doobie Brothers - Black Water
TTITLE14=John Prine - Angel From Montgomery
TTITLE15=The Commodores - Sail On
TTITLE16=George Jones - The Race Is On
TTITLE17=Eddie Rabbitt - Every Which Way But Loose
TTITLE18=Holly Dunn - Daddy's Hands
TTITLE19=Eric Weissberg and Steve Mandell - Duelling Banjos
EXTD=
EXTT0=
EXTT1=
EXTT2=
EXTT3=
EXTT4=
EXTT5=
EXTT6=
EXTT7=
EXTT8=
EXTT9=
EXTT10=
EXTT11=
EXTT12=
EXTT13=
EXTT14=
EXTT15=
EXTT16=
EXTT17=
EXTT18=
EXTT19=
PLAYORDER=
